<svg width="26" height="26" viewBox="0 0 26 26" fill="none" xmlns="http://www.w3.org/2000/svg">
<path d="M23.5161 17.6362H8.97754L9.70752 16.1494L21.8364 16.1274C22.2466 16.1274 22.5981 15.8345 22.6714 15.4292L24.3511 6.02734C24.395 5.78076 24.3291 5.52686 24.168 5.33398C24.0883 5.23906 23.989 5.1626 23.8769 5.1099C23.7647 5.05721 23.6425 5.02954 23.5186 5.02881L8.08887 4.97754L7.95703 4.35742C7.87402 3.96191 7.51758 3.67383 7.1123 3.67383H3.34033C3.11176 3.67383 2.89256 3.76463 2.73094 3.92625C2.56931 4.08787 2.47852 4.30708 2.47852 4.53564C2.47852 4.76421 2.56931 4.98342 2.73094 5.14504C2.89256 5.30666 3.11176 5.39746 3.34033 5.39746H6.41406L6.99023 8.13672L8.40869 15.0044L6.58252 17.9854C6.48768 18.1134 6.43056 18.2653 6.41762 18.4241C6.40468 18.5829 6.43643 18.7421 6.50928 18.8838C6.65576 19.1743 6.95117 19.3574 7.27832 19.3574H8.81152C8.48466 19.7916 8.30812 20.3203 8.30859 20.8638C8.30859 22.2456 9.43164 23.3687 10.8135 23.3687C12.1953 23.3687 13.3184 22.2456 13.3184 20.8638C13.3184 20.3193 13.1377 19.7896 12.8154 19.3574H16.7485C16.4217 19.7916 16.2451 20.3203 16.2456 20.8638C16.2456 22.2456 17.3687 23.3687 18.7505 23.3687C20.1323 23.3687 21.2554 22.2456 21.2554 20.8638C21.2554 20.3193 21.0747 19.7896 20.7524 19.3574H23.5186C23.9922 19.3574 24.3804 18.9717 24.3804 18.4956C24.379 18.2673 24.2873 18.0488 24.1254 17.8878C23.9635 17.7268 23.7444 17.6364 23.5161 17.6362ZM8.44775 6.67676L22.5054 6.72314L21.1284 14.4331L10.0859 14.4526L8.44775 6.67676ZM10.8135 21.6353C10.3887 21.6353 10.042 21.2886 10.042 20.8638C10.042 20.439 10.3887 20.0923 10.8135 20.0923C11.2383 20.0923 11.585 20.439 11.585 20.8638C11.585 21.0684 11.5037 21.2646 11.359 21.4093C11.2143 21.554 11.0181 21.6353 10.8135 21.6353ZM18.7505 21.6353C18.3257 21.6353 17.979 21.2886 17.979 20.8638C17.979 20.439 18.3257 20.0923 18.7505 20.0923C19.1753 20.0923 19.522 20.439 19.522 20.8638C19.522 21.0684 19.4407 21.2646 19.296 21.4093C19.1513 21.554 18.9551 21.6353 18.7505 21.6353Z" fill="black"/>
</svg>
